<svg width="23" height="18" viewBox="0 0 23 18" fill="none" xmlns="http://www.w3.org/2000/svg">
<path d="M21.1831 14.3634C21.1831 14.7306 21.0372 15.0828 20.7776 15.3424C20.5179 15.6021 20.1657 15.748 19.7985 15.748H3.18411C2.81691 15.748 2.46475 15.6021 2.2051 15.3424C1.94545 15.0828 1.79957 14.7306 1.79957 14.3634V6.05621C1.79957 5.68901 1.94545 5.33685 2.2051 5.0772C2.46475 4.81754 2.81691 4.67167 3.18411 4.67167H4.80679C5.90782 4.67107 6.96357 4.23333 7.742 3.45467L8.89117 2.30827C9.15008 2.04928 9.50105 1.90341 9.86727 1.9026H13.1126C13.4798 1.90268 13.8319 2.0486 14.0915 2.30827L15.2379 3.45467C15.6237 3.84056 16.0817 4.14666 16.5858 4.35547C17.0899 4.56429 17.6302 4.67174 18.1759 4.67167H19.7985C20.1657 4.67167 20.5179 4.81754 20.7776 5.0772C21.0372 5.33685 21.1831 5.68901 21.1831 6.05621V14.3634ZM3.18411 3.28714C2.44971 3.28714 1.74538 3.57888 1.22608 4.09818C0.70678 4.61748 0.415039 5.32181 0.415039 6.05621L0.415039 14.3634C0.415039 15.0978 0.70678 15.8022 1.22608 16.3215C1.74538 16.8408 2.44971 17.1325 3.18411 17.1325H19.7985C20.5329 17.1325 21.2373 16.8408 21.7566 16.3215C22.2759 15.8022 22.5676 15.0978 22.5676 14.3634V6.05621C22.5676 5.32181 22.2759 4.61748 21.7566 4.09818C21.2373 3.57888 20.5329 3.28714 19.7985 3.28714H18.1759C17.4415 3.28698 16.7373 2.99514 16.2181 2.4758L15.0717 1.3294C14.5526 0.810067 13.8483 0.518223 13.114 0.518066H9.86865C9.13431 0.518223 8.4301 0.810067 7.91092 1.3294L6.76452 2.4758C6.24534 2.99514 5.54113 3.28698 4.80679 3.28714H3.18411Z" fill="#FDFBFB"/>
<path d="M11.4913 12.9793C10.5733 12.9793 9.69289 12.6147 9.04376 11.9655C8.39463 11.3164 8.02996 10.436 8.02996 9.51799C8.02996 8.59999 8.39463 7.71958 9.04376 7.07046C9.69289 6.42133 10.5733 6.05665 11.4913 6.05665C12.4093 6.05665 13.2897 6.42133 13.9388 7.07046C14.588 7.71958 14.9526 8.59999 14.9526 9.51799C14.9526 10.436 14.588 11.3164 13.9388 11.9655C13.2897 12.6147 12.4093 12.9793 11.4913 12.9793ZM11.4913 14.3639C12.7765 14.3639 14.0091 13.8533 14.9178 12.9445C15.8266 12.0358 16.3372 10.8032 16.3372 9.51799C16.3372 8.23279 15.8266 7.00022 14.9178 6.09144C14.0091 5.18267 12.7765 4.67212 11.4913 4.67212C10.2061 4.67212 8.97352 5.18267 8.06475 6.09144C7.15597 7.00022 6.64542 8.23279 6.64542 9.51799C6.64542 10.8032 7.15597 12.0358 8.06475 12.9445C8.97352 13.8533 10.2061 14.3639 11.4913 14.3639ZM4.56862 6.74892C4.56862 6.93252 4.49568 7.1086 4.36586 7.23843C4.23603 7.36826 4.05995 7.44119 3.87635 7.44119C3.69275 7.44119 3.51667 7.36826 3.38684 7.23843C3.25702 7.1086 3.18408 6.93252 3.18408 6.74892C3.18408 6.56532 3.25702 6.38924 3.38684 6.25942C3.51667 6.12959 3.69275 6.05665 3.87635 6.05665C4.05995 6.05665 4.23603 6.12959 4.36586 6.25942C4.49568 6.38924 4.56862 6.56532 4.56862 6.74892Z" fill="#FDFBFB"/>
</svg>
