<svg width="17" height="17" viewBox="0 0 17 17" fill="none" xmlns="http://www.w3.org/2000/svg">
    <path d="M1.06487 15.9351L0.719169 16.2808L1.06487 15.9351C0.703188 15.5735 0.5 15.0829 0.5 14.5714V12.1429C0.5 11.6314 0.703188 11.1408 1.06487 10.7792C1.42654 10.4175 1.91708 10.2143 2.42857 10.2143H4.85714C5.36863 10.2143 5.85917 10.4175 6.22085 10.7792C6.58253 11.1408 6.78571 11.6314 6.78571 12.1429V14.5714C6.78571 15.0829 6.58253 15.5735 6.22085 15.9351C5.85917 16.2968 5.36863 16.5 4.85714 16.5H2.42857C1.91708 16.5 1.42654 16.2968 1.06487 15.9351ZM1.06487 1.06487C1.42654 0.703188 1.91708 0.5 2.42857 0.5H4.85714C5.36863 0.5 5.85917 0.703188 6.22085 1.06487C6.58253 1.42654 6.78571 1.91708 6.78571 2.42857V4.85714C6.78571 5.36863 6.58253 5.85917 6.22085 6.22085C5.85917 6.58253 5.36863 6.78571 4.85714 6.78571H2.42857C1.91708 6.78571 1.42654 6.58253 1.06487 6.22085C0.703188 5.85917 0.5 5.36863 0.5 4.85714V2.42857C0.5 1.91708 0.703188 1.42654 1.06487 1.06487ZM10.2143 2.42857C10.2143 1.91708 10.4175 1.42654 10.7792 1.06487C11.1408 0.703188 11.6314 0.5 12.1429 0.5H14.5714C15.0829 0.5 15.5735 0.703188 15.9351 1.06487L16.2887 0.711312L15.9351 1.06487C16.2968 1.42654 16.5 1.91708 16.5 2.42857V4.85714C16.5 5.36863 16.2968 5.85917 15.9351 6.22085C15.5735 6.58253 15.0829 6.78571 14.5714 6.78571H12.1429C11.6314 6.78571 11.1408 6.58253 10.7792 6.22085C10.4175 5.85917 10.2143 5.36863 10.2143 4.85714V2.42857ZM10.2143 12.1429C10.2143 11.6314 10.4175 11.1408 10.7792 10.7792C11.1408 10.4175 11.6314 10.2143 12.1429 10.2143H14.5714C15.0829 10.2143 15.5735 10.4175 15.9351 10.7792C16.2968 11.1408 16.5 11.6314 16.5 12.1429V14.5714C16.5 15.0829 16.2968 15.5735 15.9351 15.9351C15.5735 16.2968 15.0829 16.5 14.5714 16.5H12.1429C11.6314 16.5 11.1408 16.2968 10.7792 15.9351C10.4175 15.5735 10.2143 15.0829 10.2143 14.5714V12.1429Z" stroke="black"/>
</svg>
