<svg width="18" height="18" viewBox="0 0 18 18" fill="none" xmlns="http://www.w3.org/2000/svg">
<path d="M9 0.95C7.40786 0.95 5.85148 1.42212 4.52766 2.30667C3.20385 3.19121 2.17206 4.44845 1.56277 5.91939C0.953488 7.39034 0.794071 9.00892 1.10468 10.5705C1.41529 12.132 2.18198 13.5664 3.30779 14.6922C4.4336 15.818 5.86798 16.5847 7.42952 16.8953C8.99107 17.2059 10.6097 17.0465 12.0806 16.4372C13.5515 15.8279 14.8088 14.7961 15.6933 13.4723C16.5779 12.1485 17.05 10.5921 17.05 8.99999C17.05 6.865 16.2019 4.81746 14.6922 3.30779C13.1825 1.79812 11.135 0.95 9 0.95ZM9 15.95C7.62542 15.95 6.28171 15.5424 5.13879 14.7787C3.99587 14.015 3.10507 12.9296 2.57904 11.6596C2.05301 10.3897 1.91538 8.99229 2.18355 7.64412C2.45171 6.29595 3.11364 5.05758 4.08561 4.08561C5.05758 3.11363 6.29595 2.45171 7.64412 2.18354C8.99229 1.91537 10.3897 2.05301 11.6596 2.57904C12.9296 3.10507 14.015 3.99586 14.7787 5.13878C15.5424 6.2817 15.95 7.62542 15.95 8.99999C15.95 10.8432 15.2178 12.611 13.9144 13.9144C12.611 15.2178 10.8433 15.95 9 15.95Z" fill="#7C7C7C" stroke="#7C7C7C" stroke-width="0.1"/>
<path d="M6.075 6.0988L6.07501 6.0988C6.07674 6.02525 6.09321 5.95279 6.12344 5.88572C6.15327 5.81952 6.19591 5.7599 6.24889 5.71028C6.60648 5.29465 7.05109 4.96271 7.55124 4.73799C8.05211 4.51295 8.59638 4.40096 9.14541 4.40998C10.0431 4.41006 10.7916 4.68836 11.3184 5.16024C11.8454 5.63244 12.1474 6.29595 12.155 7.05947L12.155 7.05997L12.155 7.08498C12.155 7.91889 11.8454 8.54031 11.3429 8.97889C10.8515 9.40779 10.179 9.65899 9.44 9.76829V10.7548V10.755H9.39C9.39062 10.8794 9.34486 10.9995 9.26165 11.092C9.17844 11.1844 9.06376 11.2425 8.94 11.255L6.075 6.0988ZM6.075 6.0988L6.075 6.09995C6.07496 6.16835 6.08869 6.23605 6.11535 6.29904C6.14201 6.36202 6.18107 6.419 6.23021 6.46658C6.27934 6.51416 6.33754 6.55138 6.40135 6.57601C6.46504 6.60059 6.53301 6.61213 6.60124 6.60996L6.075 6.0988Z" fill="#7C7C7C" stroke="#7C7C7C" stroke-width="0.1"/>
<path d="M8.88965 13.7751C9.26244 13.7751 9.56465 13.4729 9.56465 13.1001C9.56465 12.7273 9.26244 12.4251 8.88965 12.4251C8.51686 12.4251 8.21465 12.7273 8.21465 13.1001C8.21465 13.4729 8.51686 13.7751 8.88965 13.7751Z" fill="#7C7C7C" stroke="#7C7C7C" stroke-width="0.1"/>
</svg>
