<svg width="20" height="18" viewBox="0 0 20 18" fill="none" xmlns="http://www.w3.org/2000/svg">
<path d="M10.0002 4.16338L9.96432 4.12651L9.15767 3.29736L9.19351 3.2625L9.15767 3.29736C7.29059 1.37815 3.85882 2.03782 2.61945 4.45754L10.0002 4.16338ZM10.0002 4.16338L10.036 4.12649M10.0002 4.16338L10.036 4.12649M10.036 4.12649L10.8426 3.29624C12.7097 1.37703 16.1415 2.0378 17.3809 4.45758C17.9619 5.59194 18.0959 7.23543 17.0275 9.34543C15.999 11.3724 13.8619 13.8055 10.0002 16.4593C6.13844 13.8055 4.00022 11.3724 2.97279 9.34546C1.90439 7.23662 2.03949 5.59198 2.61943 4.45758L10.036 4.12649ZM9.97259 17.9173L10.0002 17.9355L10.0277 17.9173C14.3443 15.0646 16.8399 12.3652 18.0718 9.99128C19.3042 7.61617 19.2719 5.56567 18.5301 4.0187C17.0493 0.930765 12.7478 -0.129321 10.1646 2.25006C10.1081 2.30052 10.0532 2.35276 10 2.40672C9.94646 2.35263 9.89158 2.30012 9.83601 2.24918C7.25221 -0.12883 2.95045 0.93178 1.46978 4.01983C0.728029 5.5668 0.695826 7.61716 1.92838 9.99205C3.16033 12.3658 5.656 15.0649 9.97259 17.9173Z" fill="#7C7C7C" stroke="#7C7C7C" stroke-width="0.1"/>
</svg>
