<svg width="16" height="17" viewBox="0 0 16 17" fill="none" xmlns="http://www.w3.org/2000/svg">
<path d="M13.85 15.15V15V12.0001C13.8492 11.2445 13.5487 10.52 13.0144 9.98562C12.4801 9.4513 11.7556 9.15077 10.9999 9.15L5.00015 9.15C4.24447 9.15075 3.51997 9.45128 2.98562 9.98562C2.45131 10.5199 2.15079 11.2444 2.15 12C2.15 12 2.15 12.0001 2.15 12.0001M13.85 15.15L2 12L2.15 12.0001M13.85 15.15H14H15.85M13.85 15.15H15.85M2.15 12.0001L2.15 15V15.15H2H0.15M2.15 12.0001L0.15 15.15M0.15 15.15V16.85H15.85V15.15M0.15 15.15H15.85M12 15.15H12.15V15V12C12.15 11.695 12.0288 11.4025 11.8132 11.1868C11.5975 10.9712 11.305 10.85 11 10.85H5C4.695 10.85 4.40249 10.9712 4.18683 11.1868C3.97116 11.4025 3.85 11.695 3.85 12V15V15.15H4H12Z" fill="#7C7C7C" stroke="white" stroke-width="0.3"/>
<path d="M8 1.85L7.99985 1.85C7.42985 1.85057 6.88336 2.07726 6.48031 2.48031C6.07725 2.88336 5.85057 3.42985 5.85 3.99985V4C5.85 4.42523 5.9761 4.84091 6.21234 5.19448C6.44859 5.54804 6.78437 5.82361 7.17723 5.98634C7.57009 6.14907 8.00239 6.19165 8.41944 6.10869C8.8365 6.02573 9.2196 5.82096 9.52028 5.52028C9.82096 5.2196 10.0257 4.8365 10.1087 4.41945C10.1916 4.00239 10.1491 3.57009 9.98634 3.17723C9.82361 2.78437 9.54804 2.44859 9.19448 2.21234C8.84091 1.9761 8.42523 1.85 8 1.85ZM4.15 3.99993C4.15001 3.23849 4.37581 2.49416 4.79884 1.86106C5.22189 1.22793 5.82317 0.734463 6.52667 0.443066C7.23016 0.151668 8.00427 0.0754254 8.7511 0.223978C9.49792 0.372532 10.1839 0.739209 10.7224 1.27764C11.2608 1.81607 11.6275 2.50208 11.776 3.2489C11.9246 3.99573 11.8483 4.76984 11.5569 5.47333C11.2655 6.17683 10.7721 6.77812 10.1389 7.20116C9.50586 7.62418 8.76156 7.84997 8.00015 7.85C6.97934 7.84898 6.00063 7.44302 5.27881 6.72119C4.557 5.99939 4.15104 5.02071 4.15 3.99993Z" fill="#7C7C7C" stroke="white" stroke-width="0.3"/>
</svg>
