<svg width="16" height="17" viewBox="0 0 16 17" fill="none" xmlns="http://www.w3.org/2000/svg">
    <path d="M15.6309 6.915L8.5385 0.32391C8.30793 0.109638 8.0043 -0.00632251 7.69107 0.000266144C7.37784 0.0068548 7.07925 0.135483 6.85771 0.359264L0.33475 6.9483L0 7.2864V17H6.28571V10.9393H9.71429V17H16V7.25801L15.6309 6.915ZM7.71564 1.15445C7.72571 1.15445 7.7195 1.15665 7.71518 1.16094C7.71071 1.15665 7.70557 1.15445 7.71564 1.15445ZM14.8571 15.8456H10.8571V10.9393C10.8571 10.6331 10.7367 10.3395 10.5224 10.123C10.3081 9.90646 10.0174 9.78483 9.71429 9.78483H6.28571C5.98261 9.78483 5.69192 9.90646 5.47759 10.123C5.26327 10.3395 5.14286 10.6331 5.14286 10.9393V15.8456H1.14286V7.76459L7.71564 1.17555C7.71611 1.17512 7.71614 1.17472 7.7165 1.17429L14.8571 7.76459V15.8456Z" fill="black"/>
</svg>
