<svg width="8" height="10" viewBox="0 0 8 10" fill="none" xmlns="http://www.w3.org/2000/svg">
<path d="M3.71669 2.35107C3.44616 2.35107 3.18171 2.43129 2.95677 2.58159C2.73184 2.73189 2.55652 2.94551 2.453 3.19545C2.34947 3.44538 2.32238 3.7204 2.37516 3.98573C2.42794 4.25106 2.55821 4.49478 2.7495 4.68607C2.94079 4.87737 3.18451 5.00764 3.44984 5.06041C3.71517 5.11319 3.99019 5.0861 4.24013 4.98258C4.49006 4.87905 4.70368 4.70374 4.85398 4.4788C5.00428 4.25386 5.0845 3.98941 5.0845 3.71888C5.08409 3.35625 4.93985 3.00858 4.68342 2.75215C4.427 2.49573 4.07933 2.35149 3.71669 2.35107ZM3.71669 4.40279C3.58142 4.40279 3.4492 4.36268 3.33673 4.28753C3.22426 4.21238 3.13661 4.10557 3.08484 3.9806C3.03308 3.85564 3.01954 3.71813 3.04592 3.58546C3.07231 3.4528 3.13745 3.33094 3.23309 3.23529C3.32874 3.13964 3.4506 3.07451 3.58326 3.04812C3.71593 3.02173 3.85344 3.03528 3.97841 3.08704C4.10337 3.1388 4.21019 3.22646 4.28534 3.33893C4.36048 3.4514 4.40059 3.58362 4.40059 3.71888C4.40038 3.9002 4.32826 4.07404 4.20005 4.20225C4.07184 4.33046 3.89801 4.40258 3.71669 4.40279Z" fill="#7C7C7C"/>
<path d="M6.34511 1.08837C5.69524 0.438673 4.82775 0.0527244 3.91006 0.00501635C2.99236 -0.0426917 2.08953 0.251223 1.37579 0.830035C0.662062 1.40885 0.188031 2.23152 0.0451911 3.13929C-0.0976492 4.04705 0.100827 4.97555 0.602313 5.74558L3.18634 9.71251C3.24385 9.80078 3.32247 9.8733 3.41509 9.9235C3.50771 9.97371 3.61139 10 3.71674 10C3.82209 10 3.92578 9.97371 4.0184 9.9235C4.11102 9.8733 4.18964 9.80078 4.24714 9.71251L6.83126 5.74558C7.29658 5.03126 7.50222 4.1787 7.41371 3.3308C7.3252 2.4829 6.94792 1.69119 6.34511 1.08837Z" fill="#7C7C7C"/>
<circle cx="3.75" cy="3.75" r="1.25" fill="white"/>
</svg>
