<svg width="132" height="28" viewBox="0 0 132 28" fill="none" xmlns="http://www.w3.org/2000/svg">
<path d="M30 4.87252H33.9257V15.7645H30V4.87252Z" fill="black"/>
<path d="M35.5499 15.88C35.4524 15.8697 35.378 15.8261 35.3267 15.7491C35.2754 15.6721 35.2548 15.5875 35.2651 15.4951C35.2908 15.336 35.3395 15.1898 35.4114 15.0563C35.4832 14.9229 35.5345 14.8228 35.5653 14.7561C35.6012 14.6894 35.6371 14.615 35.6731 14.5329L35.9656 13.8555L39.1293 4.37988L42.5316 10.9536L45.8338 4.37988L49.7826 15.7645H45.649L43.7401 9.88361L40.7842 16.0416L37.6744 10.4994L36.5968 13.8632C36.4274 14.2378 36.3068 14.556 36.235 14.8177C36.1631 15.0794 36.1041 15.2821 36.0579 15.4258C35.9553 15.7491 35.786 15.9005 35.5499 15.88Z" fill="black"/>
<path d="M56.4256 12.57L57.1106 12.6008C58.1062 12.6008 58.9273 12.2724 59.5738 11.6155C60.2307 10.9536 60.5745 10.0966 60.6053 9.04458C60.6618 7.42297 59.8817 6.32735 58.2653 5.75774C57.6597 5.54221 56.872 5.43444 55.9021 5.43444H55.2555V15.7645H51.3298V4.87252H54.278C55.8688 4.87252 56.8284 4.89562 57.1568 4.9418C57.4853 4.98799 57.8265 5.047 58.1806 5.11884C58.5398 5.19069 58.9247 5.3472 59.3352 5.58839C59.7509 5.82958 60.1024 6.11696 60.3898 6.45051C60.9697 7.1279 61.2493 7.92331 61.2288 8.83674C61.198 10.0016 60.8568 10.9715 60.205 11.7464C59.5431 12.5264 58.6296 13.0088 57.4647 13.1935C57.126 13.2397 56.8592 13.2628 56.6642 13.2628C56.2023 13.2628 55.9714 13.1371 55.9714 12.8856C55.9714 12.7933 56.0125 12.7189 56.0946 12.6624C56.1767 12.6008 56.287 12.57 56.4256 12.57Z" fill="black"/>
<path d="M68.2028 12.0312L68.834 12.0774C69.7371 12.0774 70.5043 11.7618 71.1355 11.1306C71.7667 10.4994 72.0823 9.71426 72.0823 8.77516C72.0823 7.54356 71.5409 6.63012 70.4581 6.03485C69.8629 5.70642 69.2265 5.51655 68.5491 5.46523C68.2618 5.43957 67.9949 5.42674 67.7486 5.42674H67.2252C67.1174 5.42674 67.0225 5.42931 66.9404 5.43444V15.7645H63.0146V4.87252C64.2155 4.87252 65.1879 4.87252 65.932 4.87252C66.6761 4.87252 67.161 4.87509 67.3868 4.88022C67.6126 4.88535 67.8128 4.89305 67.9872 4.90331C68.1668 4.90845 68.3336 4.91614 68.4876 4.92641C68.7134 4.94693 69.0315 4.99568 69.4421 5.07266C69.8577 5.14963 70.2683 5.29589 70.6737 5.51142C71.0791 5.72695 71.428 5.99379 71.7205 6.31196C72.3517 6.98934 72.6673 7.79501 72.6673 8.72898C72.6673 9.65268 72.3748 10.4686 71.7898 11.1768C71.1894 11.9004 70.3889 12.3673 69.3882 12.5777C69.8654 14.0557 70.4735 14.9383 71.2125 15.2257C71.4383 15.3129 71.6641 15.3565 71.8899 15.3565L72.498 15.2103C72.6878 15.2103 72.7828 15.3078 72.7828 15.5028C72.7828 15.7748 72.4646 15.9108 71.8283 15.9108C71.3664 15.9108 70.9431 15.7825 70.5582 15.5259C69.9578 15.1667 69.4472 14.4688 69.0264 13.4322L68.8032 12.8856C68.7672 12.7984 68.7339 12.7445 68.7031 12.724C68.6774 12.7035 68.6287 12.6932 68.5568 12.6932C68.4901 12.6932 68.4311 12.6983 68.3798 12.7086L68.1951 12.7163C67.9898 12.7163 67.8487 12.6778 67.7717 12.6008C67.6999 12.5239 67.6639 12.4443 67.6639 12.3622C67.6639 12.1415 67.8435 12.0312 68.2028 12.0312Z" fill="black"/>
<path d="M81.327 15.1025C81.5887 15.1025 81.7196 15.2052 81.7196 15.4104C81.7196 15.5028 81.6631 15.5849 81.5503 15.6567C81.4374 15.7286 81.2423 15.7645 80.9652 15.7645H74.4454V4.87252C76.4673 4.87252 78.4892 4.87252 80.5111 4.87252L81.1423 4.84943C81.5272 4.84943 81.7196 4.96233 81.7196 5.18812C81.7196 5.27536 81.6862 5.35747 81.6195 5.43444C81.5579 5.50629 81.4861 5.54221 81.404 5.54221C81.2706 5.54221 81.1295 5.52681 80.9806 5.49602C80.76 5.44984 80.4572 5.42674 80.0723 5.42674H78.3712V7.77449H79.7721C79.7721 7.77449 80.0877 7.76166 80.7189 7.736C80.8318 7.736 80.9268 7.76422 81.0037 7.82067C81.0858 7.87199 81.1269 7.9464 81.1269 8.0439C81.1269 8.25943 80.9832 8.36719 80.6958 8.36719L80.3648 8.3595C80.1955 8.3441 80.0544 8.3364 79.9415 8.3364H78.3712V15.2026H80.0723C80.4521 15.2026 80.7215 15.1872 80.8806 15.1564C81.0704 15.1205 81.2193 15.1025 81.327 15.1025Z" fill="black"/>
<path d="M83.7825 15.2103C83.6029 15.1077 83.4464 14.9999 83.313 14.887C83.1847 14.7741 83.1205 14.6535 83.1205 14.5252C83.1205 14.2789 83.2257 14.1557 83.4361 14.1557C83.5747 14.1557 83.7286 14.2327 83.898 14.3867C84.0673 14.5406 84.2572 14.6766 84.4676 14.7946C84.678 14.9075 84.9064 15.005 85.1527 15.0871C85.6607 15.2565 86.1303 15.3411 86.5613 15.3411C86.9924 15.3411 87.3234 15.3129 87.5543 15.2565C87.7904 15.2 87.9879 15.123 88.147 15.0255C88.4857 14.8151 88.6551 14.5457 88.6551 14.2173C88.6551 13.9145 88.5088 13.6092 88.2163 13.3013C87.97 13.0396 87.621 12.7266 87.1694 12.3622L85.8532 11.3307C84.5343 10.3147 83.7569 9.38583 83.5208 8.54424C83.4387 8.25173 83.3977 7.92587 83.3977 7.56665C83.3977 7.20744 83.4772 6.85335 83.6363 6.5044C83.8005 6.15544 84.0417 5.85011 84.3598 5.58839C85.0424 5.01878 85.9712 4.73397 87.1463 4.73397C87.7467 4.73397 88.2856 4.82377 88.7628 5.00338C89.2401 5.17786 89.5659 5.33437 89.7404 5.47293C89.9149 5.61149 90.0021 5.73721 90.0021 5.85011C90.0021 6.08617 89.9046 6.20419 89.7096 6.20419C89.5967 6.20419 89.4761 6.14775 89.3478 6.03485C89.2195 5.92195 89.0759 5.82445 88.9168 5.74234C88.7628 5.6551 88.5858 5.57813 88.3856 5.51142C87.9546 5.36773 87.5312 5.29589 87.1156 5.29589C86.3509 5.29589 85.9686 5.54734 85.9686 6.05024C85.9686 6.26064 86.0379 6.45565 86.1765 6.63525C86.4228 6.94829 86.9026 7.39731 87.6159 7.98232C88.3343 8.5622 88.9091 9.07023 89.3401 9.50643C89.7763 9.94262 90.1073 10.3352 90.3331 10.6841C90.6923 11.2332 90.8719 11.8054 90.8719 12.4007C90.8719 12.9908 90.7667 13.4937 90.5563 13.9094C90.3511 14.3199 90.0611 14.674 89.6865 14.9717C88.8962 15.5977 87.9161 15.9108 86.7461 15.9108C85.576 15.9108 84.5882 15.6773 83.7825 15.2103Z" fill="black"/>
<path d="M92.9426 15.2103C92.763 15.1077 92.6064 14.9999 92.473 14.887C92.3447 14.7741 92.2806 14.6535 92.2806 14.5252C92.2806 14.2789 92.3858 14.1557 92.5962 14.1557C92.7347 14.1557 92.8887 14.2327 93.058 14.3867C93.2274 14.5406 93.4173 14.6766 93.6276 14.7946C93.838 14.9075 94.0664 15.005 94.3127 15.0871C94.8208 15.2565 95.2903 15.3411 95.7214 15.3411C96.1524 15.3411 96.4834 15.3129 96.7144 15.2565C96.9504 15.2 97.148 15.123 97.3071 15.0255C97.6458 14.8151 97.8151 14.5457 97.8151 14.2173C97.8151 13.9145 97.6688 13.6092 97.3763 13.3013C97.13 13.0396 96.7811 12.7266 96.3295 12.3622L95.0132 11.3307C93.6944 10.3147 92.9169 9.38583 92.6809 8.54424C92.5987 8.25173 92.5577 7.92587 92.5577 7.56665C92.5577 7.20744 92.6372 6.85335 92.7963 6.5044C92.9605 6.15544 93.2017 5.85011 93.5199 5.58839C94.2024 5.01878 95.1312 4.73397 96.3064 4.73397C96.9068 4.73397 97.4456 4.82377 97.9229 5.00338C98.4001 5.17786 98.726 5.33437 98.9004 5.47293C99.0749 5.61149 99.1622 5.73721 99.1622 5.85011C99.1622 6.08617 99.0647 6.20419 98.8697 6.20419C98.7568 6.20419 98.6362 6.14775 98.5079 6.03485C98.3796 5.92195 98.2359 5.82445 98.0768 5.74234C97.9229 5.6551 97.7458 5.57813 97.5457 5.51142C97.1146 5.36773 96.6913 5.29589 96.2756 5.29589C95.511 5.29589 95.1287 5.54734 95.1287 6.05024C95.1287 6.26064 95.1979 6.45565 95.3365 6.63525C95.5828 6.94829 96.0626 7.39731 96.7759 7.98232C97.4944 8.5622 98.0691 9.07023 98.5002 9.50643C98.9364 9.94262 99.2674 10.3352 99.4932 10.6841C99.8524 11.2332 100.032 11.8054 100.032 12.4007C100.032 12.9908 99.9268 13.4937 99.7164 13.9094C99.5111 14.3199 99.2212 14.674 98.8466 14.9717C98.0563 15.5977 97.0761 15.9108 95.9061 15.9108C94.7361 15.9108 93.7482 15.6773 92.9426 15.2103Z" fill="black"/>
<path d="M101.972 4.87252H105.897V15.7645H101.972V4.87252Z" fill="black"/>
<path d="M109.631 14.379C109.123 13.8812 108.717 13.2808 108.415 12.5777C108.117 11.8696 107.968 11.0998 107.968 10.2685C107.968 9.43202 108.109 8.68279 108.391 8.02081C108.679 7.35369 109.074 6.77638 109.577 6.28887C110.655 5.25227 112.007 4.73397 113.633 4.73397C115.25 4.73397 116.574 5.24457 117.605 6.26577C118.652 7.30237 119.176 8.64687 119.176 10.2993C119.176 11.9465 118.639 13.3013 117.567 14.3636C116.895 15.0204 116.068 15.4746 115.088 15.726C114.601 15.8492 114.034 15.9108 113.387 15.9108C112.746 15.9108 112.086 15.7799 111.409 15.5182C110.732 15.2513 110.139 14.8716 109.631 14.379ZM113.626 5.29589C113.344 5.29589 113.079 5.31641 112.833 5.35747V15.2873C113.069 15.3283 113.333 15.3488 113.626 15.3488C114.996 15.3488 116.151 14.8921 117.09 13.9787C118.07 13.0293 118.56 11.8029 118.56 10.2993C118.56 8.86753 118.101 7.67698 117.182 6.72762C116.253 5.77313 115.068 5.29589 113.626 5.29589Z" fill="black"/>
<path d="M122.07 14.6638L122.093 15.4335C122.093 15.5669 122.057 15.6696 121.985 15.7414C121.913 15.8133 121.826 15.8492 121.724 15.8492C121.626 15.8492 121.544 15.8158 121.477 15.7491C121.411 15.6824 121.377 15.6106 121.377 15.5336C121.377 15.4515 121.382 15.3771 121.393 15.3104C121.408 15.2385 121.421 15.159 121.431 15.0717C121.457 14.9229 121.47 14.5509 121.47 13.9556V4.37988L129.837 11.0151V6.42742C129.837 6.07847 129.826 5.82958 129.806 5.68076C129.78 5.43957 129.767 5.27023 129.767 5.17273C129.767 4.91614 129.878 4.78785 130.098 4.78785C130.186 4.78785 130.268 4.81864 130.345 4.88022C130.427 4.9418 130.468 5.03161 130.468 5.14963V5.41905L130.437 6.53519V16.1879L122.07 9.62189V14.6638Z" fill="black"/>
<path d="M32.0682 24.9606H31.515V20.7362H30V20.2458H33.5832V20.7362H32.0682V24.9606Z" fill="#7C7C7C"/>
<path d="M36.3397 24.9606H35.8966L35.862 24.5457C35.7467 24.6945 35.6 24.8118 35.4219 24.8977C35.2438 24.9815 35.0448 25.0234 34.8247 25.0234C34.5984 25.0234 34.3962 24.9794 34.2181 24.8914C34.04 24.8013 33.8996 24.6787 33.7969 24.5237C33.6963 24.3686 33.6461 24.1926 33.6461 23.9956C33.6461 23.7882 33.7005 23.6059 33.8095 23.4487C33.9206 23.2895 34.0704 23.1648 34.259 23.0747C34.4497 22.9846 34.6655 22.9395 34.9065 22.9395C35.0636 22.9395 35.2239 22.9594 35.3874 22.9992C35.5508 23.037 35.6964 23.0893 35.8243 23.1564V23.0244C35.8243 22.8568 35.7824 22.7143 35.6985 22.5969C35.6147 22.4775 35.5026 22.3863 35.3622 22.3235C35.2218 22.2585 35.0668 22.226 34.897 22.226C34.7503 22.226 34.6005 22.2533 34.4476 22.3078C34.2946 22.3601 34.1479 22.4419 34.0075 22.5529L33.8378 22.1097C34.0201 21.9924 34.2118 21.9044 34.413 21.8457C34.6141 21.7849 34.8132 21.7546 35.0102 21.7546C35.2826 21.7546 35.5173 21.8101 35.7142 21.9211C35.9133 22.0301 36.0673 22.1862 36.1763 22.3895C36.2853 22.5906 36.3397 22.8295 36.3397 23.1061V24.9606ZM34.9159 24.552C35.0772 24.552 35.225 24.5184 35.3591 24.4514C35.4932 24.3843 35.6021 24.2879 35.686 24.1622C35.7698 24.0344 35.8159 23.8835 35.8243 23.7096V23.6562C35.709 23.5661 35.5791 23.4969 35.4345 23.4487C35.292 23.3984 35.1464 23.3733 34.9976 23.3733C34.765 23.3733 34.5701 23.4299 34.413 23.543C34.2579 23.6562 34.1804 23.7997 34.1804 23.9736C34.1804 24.0826 34.2118 24.1811 34.2747 24.2691C34.3396 24.3571 34.4277 24.4262 34.5387 24.4765C34.6498 24.5268 34.7755 24.552 34.9159 24.552Z" fill="#7C7C7C"/>
<path d="M37.7699 24.9606H37.2544V20.2458H37.7699V23.565L38.015 23.2664L39.3823 21.8174H40.0298L38.7474 23.1815L40.2278 24.9606H39.5583L38.3891 23.5587L37.7699 24.2188V24.9606Z" fill="#7C7C7C"/>
<path d="M41.1268 20.8242C41.0387 20.8242 40.9644 20.7938 40.9036 20.733C40.8449 20.6702 40.8156 20.5947 40.8156 20.5067C40.8156 20.4208 40.8449 20.3475 40.9036 20.2867C40.9644 20.2259 41.0387 20.1956 41.1268 20.1956C41.2169 20.1956 41.2923 20.2259 41.3531 20.2867C41.4138 20.3475 41.4442 20.4208 41.4442 20.5067C41.4442 20.5947 41.4138 20.6702 41.3531 20.733C41.2923 20.7938 41.2169 20.8242 41.1268 20.8242ZM41.3845 24.9606H40.869V21.8174H41.3845V24.9606Z" fill="#7C7C7C"/>
<path d="M45.3197 24.9606H44.8042V23.2067C44.8042 22.9091 44.7194 22.6713 44.5496 22.4932C44.3799 22.3151 44.1547 22.226 43.8739 22.226C43.5826 22.226 43.3458 22.3224 43.1635 22.5152C42.9833 22.7059 42.8932 22.9573 42.8932 23.2696V24.9606H42.3777V21.8174H42.8272L42.8461 22.3266C42.9613 22.1422 43.1132 22.0008 43.3018 21.9023C43.4904 21.8038 43.7125 21.7546 43.9682 21.7546C44.3852 21.7546 44.7141 21.8803 44.9551 22.1317C45.1982 22.3832 45.3197 22.7279 45.3197 23.1658V24.9606Z" fill="#7C7C7C"/>
<path d="M47.5671 24.9606C47.2653 24.9606 46.994 24.8904 46.753 24.75C46.5141 24.6096 46.3255 24.4189 46.1872 24.1779C46.0489 23.9349 45.9798 23.6614 45.9798 23.3576C45.9798 23.0516 46.0489 22.7782 46.1872 22.5372C46.3255 22.2962 46.5141 22.1055 46.753 21.9651C46.994 21.8248 47.2664 21.7546 47.5702 21.7546C47.8133 21.7546 48.0364 21.8007 48.2397 21.8929C48.443 21.983 48.6158 22.1087 48.7583 22.27L48.7835 21.8174H49.2392V24.8788C49.2392 25.2309 49.1701 25.5347 49.0318 25.7904C48.8935 26.0481 48.6965 26.2461 48.4409 26.3844C48.1852 26.5248 47.8814 26.595 47.5294 26.595C47.0306 26.595 46.5969 26.4295 46.2281 26.0984L46.4544 25.6835C46.7415 25.981 47.0925 26.1298 47.5074 26.1298C47.7567 26.1298 47.9715 26.0774 48.1517 25.9727C48.334 25.87 48.4744 25.7244 48.5729 25.5358C48.6735 25.3472 48.7238 25.124 48.7238 24.8663V24.4797C48.5813 24.6284 48.4105 24.7458 48.2114 24.8317C48.0144 24.9176 47.7997 24.9606 47.5671 24.9606ZM47.6111 24.5048C47.8164 24.5048 48.0029 24.4587 48.1706 24.3665C48.3382 24.2722 48.4723 24.1444 48.5729 23.9831C48.6735 23.8196 48.7238 23.6352 48.7238 23.4299V23.2853C48.7238 23.0778 48.6735 22.8934 48.5729 22.7321C48.4723 22.5707 48.3382 22.444 48.1706 22.3518C48.0029 22.2575 47.8164 22.2103 47.6111 22.2103C47.3994 22.2103 47.2098 22.2606 47.0422 22.3612C46.8745 22.4618 46.7415 22.599 46.643 22.7729C46.5466 22.9448 46.4984 23.1396 46.4984 23.3576C46.4984 23.5755 46.5466 23.7714 46.643 23.9453C46.7415 24.1193 46.8745 24.2565 47.0422 24.3571C47.2098 24.4556 47.3994 24.5048 47.6111 24.5048Z" fill="#7C7C7C"/>
<path d="M55.7424 24.3571C55.5266 24.575 55.2688 24.7458 54.9692 24.8694C54.6695 24.9931 54.3427 25.0549 53.9885 25.0549C53.6344 25.0549 53.3075 24.9941 53.0079 24.8726C52.7103 24.751 52.4515 24.5802 52.2315 24.3602C52.0115 24.1381 51.8407 23.8783 51.7192 23.5807C51.5976 23.2811 51.5369 22.9552 51.5369 22.6032C51.5369 22.2491 51.5976 21.9232 51.7192 21.6257C51.8407 21.326 52.0115 21.0662 52.2315 20.8462C52.4515 20.6262 52.7103 20.4554 53.0079 20.3339C53.3075 20.2123 53.6344 20.1515 53.9885 20.1515C54.3406 20.1515 54.6664 20.2134 54.9661 20.337C55.2657 20.4585 55.5234 20.6283 55.7393 20.8462L55.3527 21.2391C55.185 21.0526 54.9839 20.907 54.7492 20.8022C54.5145 20.6953 54.2578 20.6419 53.9791 20.6419C53.7088 20.6419 53.4594 20.6911 53.231 20.7896C53.0026 20.886 52.8036 21.0232 52.6338 21.2014C52.4662 21.3774 52.3352 21.5848 52.2409 21.8237C52.1487 22.0626 52.1026 22.3224 52.1026 22.6032C52.1026 22.8861 52.1487 23.147 52.2409 23.3859C52.3352 23.6226 52.4662 23.8301 52.6338 24.0082C52.8036 24.1842 53.0026 24.3215 53.231 24.4199C53.4594 24.5163 53.7088 24.5645 53.9791 24.5645C54.2578 24.5645 54.5145 24.5121 54.7492 24.4074C54.9839 24.3005 55.185 24.1538 55.3527 23.9673L55.7424 24.3571Z" fill="#7C7C7C"/>
<path d="M59.0333 24.9606H58.5901L58.5555 24.5457C58.4403 24.6945 58.2936 24.8118 58.1155 24.8977C57.9374 24.9815 57.7383 25.0234 57.5183 25.0234C57.292 25.0234 57.0898 24.9794 56.9117 24.8914C56.7336 24.8013 56.5932 24.6787 56.4905 24.5237C56.3899 24.3686 56.3396 24.1926 56.3396 23.9956C56.3396 23.7882 56.3941 23.6059 56.5031 23.4487C56.6141 23.2895 56.7639 23.1648 56.9525 23.0747C57.1432 22.9846 57.359 22.9395 57.6 22.9395C57.7572 22.9395 57.9175 22.9594 58.0809 22.9992C58.2444 23.037 58.39 23.0893 58.5178 23.1564V23.0244C58.5178 22.8568 58.4759 22.7143 58.3921 22.5969C58.3083 22.4775 58.1962 22.3863 58.0558 22.3235C57.9154 22.2585 57.7603 22.226 57.5906 22.226C57.4439 22.226 57.2941 22.2533 57.1411 22.3078C56.9881 22.3601 56.8415 22.4419 56.7011 22.5529L56.5313 22.1097C56.7136 21.9924 56.9054 21.9044 57.1065 21.8457C57.3077 21.7849 57.5068 21.7546 57.7037 21.7546C57.9761 21.7546 58.2108 21.8101 58.4078 21.9211C58.6069 22.0301 58.7609 22.1862 58.8698 22.3895C58.9788 22.5906 59.0333 22.8295 59.0333 23.1061V24.9606ZM57.6094 24.552C57.7708 24.552 57.9185 24.5184 58.0526 24.4514C58.1867 24.3843 58.2957 24.2879 58.3795 24.1622C58.4633 24.0344 58.5094 23.8835 58.5178 23.7096V23.6562C58.4026 23.5661 58.2726 23.4969 58.1281 23.4487C57.9856 23.3984 57.8399 23.3733 57.6912 23.3733C57.4586 23.3733 57.2637 23.4299 57.1065 23.543C56.9515 23.6562 56.8739 23.7997 56.8739 23.9736C56.8739 24.0826 56.9054 24.1811 56.9682 24.2691C57.0332 24.3571 57.1212 24.4262 57.2323 24.4765C57.3433 24.5268 57.469 24.552 57.6094 24.552Z" fill="#7C7C7C"/>
<path d="M60.4634 24.9606H59.9479V21.8174H60.4006L60.4226 22.4398C60.5315 22.2239 60.6845 22.0563 60.8815 21.9369C61.0805 21.8153 61.3089 21.7546 61.5667 21.7546C61.6232 21.7546 61.6809 21.7577 61.7395 21.764C61.7982 21.7703 61.8569 21.7797 61.9156 21.7923L61.8527 22.2575C61.7374 22.2302 61.6232 22.2166 61.5101 22.2166C61.3047 22.2166 61.1224 22.2669 60.9632 22.3675C60.806 22.4681 60.6834 22.6063 60.5954 22.7824C60.5074 22.9584 60.4634 23.1606 60.4634 23.389V24.9606Z" fill="#7C7C7C"/>
<path d="M65.2064 24.574C64.8167 24.8736 64.3871 25.0234 63.9177 25.0234C63.5909 25.0234 63.2975 24.9501 63.0377 24.8034C62.7778 24.6567 62.5725 24.4577 62.4216 24.2062C62.2728 23.9527 62.1984 23.6666 62.1984 23.3481C62.1984 23.0422 62.2676 22.7698 62.4059 22.5309C62.5442 22.2899 62.7338 22.1003 62.9748 21.962C63.2158 21.8237 63.4892 21.7546 63.7952 21.7546C64.1095 21.7546 64.3861 21.83 64.625 21.9809C64.8659 22.1317 65.0535 22.3413 65.1876 22.6095C65.3217 22.8777 65.3887 23.1878 65.3887 23.5399V23.6404H62.7579C62.7956 23.8248 62.8711 23.9851 62.9842 24.1213C63.0995 24.2576 63.242 24.3634 63.4117 24.4388C63.5814 24.5142 63.7711 24.552 63.9806 24.552C64.341 24.552 64.67 24.4336 64.9676 24.1968L65.2064 24.574ZM62.7391 23.2004H64.9016C64.8785 23.0055 64.8177 22.8358 64.7193 22.6912C64.6229 22.5445 64.4971 22.4303 64.3421 22.3486C64.1891 22.2669 64.0162 22.226 63.8235 22.226C63.6286 22.226 63.4526 22.2669 63.2954 22.3486C63.1403 22.4303 63.0136 22.5445 62.9151 22.6912C62.8187 22.8358 62.76 23.0055 62.7391 23.2004Z" fill="#7C7C7C"/>
<path d="M69.918 25.0549C69.5639 25.0549 69.237 24.9941 68.9374 24.8726C68.6398 24.751 68.381 24.5802 68.161 24.3602C67.941 24.1381 67.7702 23.8783 67.6487 23.5807C67.5271 23.2811 67.4664 22.9552 67.4664 22.6032C67.4664 22.2491 67.5271 21.9232 67.6487 21.6257C67.7702 21.326 67.941 21.0662 68.161 20.8462C68.381 20.6262 68.6398 20.4554 68.9374 20.3339C69.237 20.2123 69.5639 20.1515 69.918 20.1515C70.2722 20.1515 70.598 20.2123 70.8955 20.3339C71.1931 20.4554 71.4519 20.6262 71.6719 20.8462C71.8919 21.0662 72.0627 21.326 72.1842 21.6257C72.3058 21.9232 72.3665 22.2491 72.3665 22.6032C72.3665 22.9552 72.3058 23.2811 72.1842 23.5807C72.0627 23.8783 71.8919 24.1381 71.6719 24.3602C71.4519 24.5802 71.1931 24.751 70.8955 24.8726C70.598 24.9941 70.2722 25.0549 69.918 25.0549ZM69.918 24.5645C70.1883 24.5645 70.4377 24.5153 70.6661 24.4168C70.8966 24.3183 71.0967 24.1811 71.2664 24.0051C71.4362 23.8269 71.5671 23.6195 71.6593 23.3827C71.7536 23.1438 71.8008 22.884 71.8008 22.6032C71.8008 22.3224 71.7536 22.0626 71.6593 21.8237C71.5671 21.5848 71.4362 21.3774 71.2664 21.2014C71.0967 21.0232 70.8966 20.886 70.6661 20.7896C70.4377 20.6911 70.1883 20.6419 69.918 20.6419C69.6477 20.6419 69.3973 20.6911 69.1668 20.7896C68.9384 20.886 68.7393 21.0232 68.5696 21.2014C68.3999 21.3774 68.2679 21.5848 68.1736 21.8237C68.0793 22.0626 68.0321 22.3224 68.0321 22.6032C68.0321 22.884 68.0793 23.1438 68.1736 23.3827C68.2679 23.6216 68.3999 23.8301 68.5696 24.0082C68.7393 24.1842 68.9384 24.3215 69.1668 24.4199C69.3973 24.5163 69.6477 24.5645 69.918 24.5645Z" fill="#7C7C7C"/>
<path d="M73.8753 24.9606H73.3598V22.2795H72.8097V21.8174H73.3598V21.1416C73.3598 20.9468 73.4006 20.7749 73.4824 20.6262C73.5662 20.4774 73.6814 20.3611 73.8281 20.2773C73.9769 20.1935 74.1477 20.1515 74.3404 20.1515C74.4599 20.1515 74.5793 20.1683 74.6988 20.2018C74.8203 20.2333 74.9387 20.2825 75.0539 20.3496L74.8559 20.755C74.7847 20.7089 74.7124 20.6744 74.639 20.6513C74.5657 20.6262 74.4924 20.6136 74.419 20.6136C74.2577 20.6136 74.1267 20.6723 74.0261 20.7896C73.9255 20.9049 73.8753 21.0557 73.8753 21.2422V21.8174H74.8465V22.2795H73.8753V24.9606Z" fill="#7C7C7C"/>
<path d="M77.5213 24.9606H76.9398L78.876 20.2458H79.4763L81.4094 24.9606H80.8279L80.3156 23.6876H78.0336L77.5213 24.9606ZM78.2285 23.1973H80.1207L79.1746 20.843L78.2285 23.1973Z" fill="#7C7C7C"/>
<path d="M82.5849 24.9606H82.038V20.1201H82.5849V24.9606Z" fill="#7C7C7C"/>
<path d="M84.1062 24.9606H83.5593V20.1201H84.1062V24.9606Z" fill="#7C7C7C"/>
<path d="M88.8838 25.0549C88.5297 25.0549 88.2028 24.9941 87.9031 24.8726C87.6056 24.751 87.3468 24.5802 87.1268 24.3602C86.9068 24.1381 86.736 23.8783 86.6144 23.5807C86.4929 23.2811 86.4321 22.9552 86.4321 22.6032C86.4321 22.2491 86.4929 21.9232 86.6144 21.6257C86.736 21.326 86.9068 21.0662 87.1268 20.8462C87.3468 20.6262 87.6056 20.4554 87.9031 20.3339C88.2028 20.2123 88.5297 20.1515 88.8838 20.1515C89.2379 20.1515 89.5638 20.2123 89.8613 20.3339C90.1589 20.4554 90.4177 20.6262 90.6377 20.8462C90.8577 21.0662 91.0285 21.326 91.15 21.6257C91.2715 21.9232 91.3323 22.2491 91.3323 22.6032C91.3323 22.9552 91.2715 23.2811 91.15 23.5807C91.0285 23.8783 90.8577 24.1381 90.6377 24.3602C90.4177 24.5802 90.1589 24.751 89.8613 24.8726C89.5638 24.9941 89.2379 25.0549 88.8838 25.0549ZM88.8838 24.5645C89.1541 24.5645 89.4035 24.5153 89.6319 24.4168C89.8624 24.3183 90.0625 24.1811 90.2322 24.0051C90.4019 23.8269 90.5329 23.6195 90.6251 23.3827C90.7194 23.1438 90.7665 22.884 90.7665 22.6032C90.7665 22.3224 90.7194 22.0626 90.6251 21.8237C90.5329 21.5848 90.4019 21.3774 90.2322 21.2014C90.0625 21.0232 89.8624 20.886 89.6319 20.7896C89.4035 20.6911 89.1541 20.6419 88.8838 20.6419C88.6135 20.6419 88.3631 20.6911 88.1326 20.7896C87.9042 20.886 87.7051 21.0232 87.5354 21.2014C87.3657 21.3774 87.2336 21.5848 87.1394 21.8237C87.0451 22.0626 86.9979 22.3224 86.9979 22.6032C86.9979 22.884 87.0451 23.1438 87.1394 23.3827C87.2336 23.6216 87.3657 23.8301 87.5354 24.0082C87.7051 24.1842 87.9042 24.3215 88.1326 24.4199C88.3631 24.5163 88.6135 24.5645 88.8838 24.5645Z" fill="#7C7C7C"/>
<path d="M92.841 24.9606H92.3256V22.2795H91.7755V21.8174H92.3256V21.1416C92.3256 20.9468 92.3664 20.7749 92.4481 20.6262C92.532 20.4774 92.6472 20.3611 92.7939 20.2773C92.9427 20.1935 93.1134 20.1515 93.3062 20.1515C93.4257 20.1515 93.5451 20.1683 93.6645 20.2018C93.7861 20.2333 93.9045 20.2825 94.0197 20.3496L93.8217 20.755C93.7504 20.7089 93.6782 20.6744 93.6048 20.6513C93.5315 20.6262 93.4581 20.6136 93.3848 20.6136C93.2234 20.6136 93.0925 20.6723 92.9919 20.7896C92.8913 20.9049 92.841 21.0557 92.841 21.2422V21.8174H93.8123V22.2795H92.841V24.9606Z" fill="#7C7C7C"/>
<path d="M98.2253 24.9606H97.6721V22.9458L95.8427 20.2458H96.5154L97.9487 22.4838L99.3882 20.2458H100.058L98.2253 22.9521V24.9606Z" fill="#7C7C7C"/>
<path d="M101.425 25.0234C101.113 25.0234 100.832 24.9522 100.583 24.8097C100.333 24.6672 100.136 24.4734 99.9917 24.2282C99.8492 23.981 99.778 23.7012 99.778 23.389C99.778 23.0789 99.8492 22.8012 99.9917 22.5561C100.136 22.3088 100.333 22.1139 100.583 21.9714C100.832 21.8268 101.113 21.7546 101.425 21.7546C101.737 21.7546 102.017 21.8268 102.264 21.9714C102.511 22.1139 102.706 22.3088 102.849 22.5561C102.991 22.8012 103.063 23.0789 103.063 23.389C103.063 23.7012 102.991 23.981 102.849 24.2282C102.706 24.4734 102.511 24.6672 102.264 24.8097C102.017 24.9522 101.737 25.0234 101.425 25.0234ZM101.422 24.5582C101.633 24.5582 101.823 24.5069 101.991 24.4042C102.158 24.3016 102.29 24.1622 102.387 23.9862C102.485 23.8102 102.535 23.6101 102.535 23.3859C102.535 23.1658 102.485 22.9678 102.387 22.7918C102.29 22.6158 102.158 22.4764 101.991 22.3738C101.823 22.2711 101.633 22.2197 101.422 22.2197C101.21 22.2197 101.02 22.2711 100.85 22.3738C100.682 22.4764 100.549 22.6158 100.451 22.7918C100.354 22.9678 100.306 23.1658 100.306 23.3859C100.306 23.6101 100.354 23.8102 100.451 23.9862C100.549 24.1622 100.682 24.3016 100.85 24.4042C101.02 24.5069 101.21 24.5582 101.422 24.5582Z" fill="#7C7C7C"/>
<path d="M106.668 24.9606H106.215L106.196 24.4514C106.081 24.6358 105.929 24.7772 105.741 24.8757C105.554 24.9742 105.333 25.0234 105.077 25.0234C104.66 25.0234 104.33 24.8977 104.087 24.6463C103.846 24.3927 103.726 24.047 103.726 23.609V21.8174H104.241V23.5713C104.241 23.8688 104.325 24.1067 104.493 24.2848C104.662 24.4629 104.888 24.552 105.168 24.552C105.462 24.552 105.699 24.4556 105.879 24.2628C106.061 24.07 106.152 23.8186 106.152 23.5084V21.8174H106.668V24.9606Z" fill="#7C7C7C"/>
<path d="M108.158 24.9606H107.642V21.8174H108.095L108.117 22.4398C108.226 22.2239 108.379 22.0563 108.576 21.9369C108.775 21.8153 109.003 21.7546 109.261 21.7546C109.317 21.7546 109.375 21.7577 109.434 21.764C109.492 21.7703 109.551 21.7797 109.61 21.7923L109.547 22.2575C109.432 22.2302 109.317 22.2166 109.204 22.2166C108.999 22.2166 108.817 22.2669 108.657 22.3675C108.5 22.4681 108.378 22.6063 108.29 22.7824C108.202 22.9584 108.158 23.1606 108.158 23.389V24.9606Z" fill="#7C7C7C"/>
<path d="M115.817 24.9606H115.233L112.269 21.1102V24.9606H111.716V20.2458H112.3L115.264 24.0962V20.2458H115.817V24.9606Z" fill="#7C7C7C"/>
<path d="M119.552 24.574C119.162 24.8736 118.732 25.0234 118.263 25.0234C117.936 25.0234 117.643 24.9501 117.383 24.8034C117.123 24.6567 116.918 24.4577 116.767 24.2062C116.618 23.9527 116.544 23.6666 116.544 23.3481C116.544 23.0422 116.613 22.7698 116.751 22.5309C116.889 22.2899 117.079 22.1003 117.32 21.962C117.561 21.8237 117.834 21.7546 118.14 21.7546C118.455 21.7546 118.731 21.83 118.97 21.9809C119.211 22.1317 119.399 22.3413 119.533 22.6095C119.667 22.8777 119.734 23.1878 119.734 23.5399V23.6404H117.103C117.141 23.8248 117.216 23.9851 117.329 24.1213C117.445 24.2576 117.587 24.3634 117.757 24.4388C117.927 24.5142 118.116 24.552 118.326 24.552C118.686 24.552 119.015 24.4336 119.313 24.1968L119.552 24.574ZM117.084 23.2004H119.247C119.224 23.0055 119.163 22.8358 119.064 22.6912C118.968 22.5445 118.842 22.4303 118.687 22.3486C118.534 22.2669 118.361 22.226 118.169 22.226C117.974 22.226 117.798 22.2669 117.64 22.3486C117.485 22.4303 117.359 22.5445 117.26 22.6912C117.164 22.8358 117.105 23.0055 117.084 23.2004Z" fill="#7C7C7C"/>
<path d="M123.216 24.574C122.827 24.8736 122.397 25.0234 121.928 25.0234C121.601 25.0234 121.308 24.9501 121.048 24.8034C120.788 24.6567 120.582 24.4577 120.432 24.2062C120.283 23.9527 120.208 23.6666 120.208 23.3481C120.208 23.0422 120.278 22.7698 120.416 22.5309C120.554 22.2899 120.744 22.1003 120.985 21.962C121.226 21.8237 121.499 21.7546 121.805 21.7546C122.119 21.7546 122.396 21.83 122.635 21.9809C122.876 22.1317 123.063 22.3413 123.198 22.6095C123.332 22.8777 123.399 23.1878 123.399 23.5399V23.6404H120.768C120.806 23.8248 120.881 23.9851 120.994 24.1213C121.109 24.2576 121.252 24.3634 121.422 24.4388C121.591 24.5142 121.781 24.552 121.991 24.552C122.351 24.552 122.68 24.4336 122.978 24.1968L123.216 24.574ZM120.749 23.2004H122.912C122.889 23.0055 122.828 22.8358 122.729 22.6912C122.633 22.5445 122.507 22.4303 122.352 22.3486C122.199 22.2669 122.026 22.226 121.833 22.226C121.639 22.226 121.463 22.2669 121.305 22.3486C121.15 22.4303 121.024 22.5445 120.925 22.6912C120.829 22.8358 120.77 23.0055 120.749 23.2004Z" fill="#7C7C7C"/>
<path d="M127.193 24.9606H126.734L126.705 24.5017C126.561 24.663 126.385 24.7908 126.177 24.8851C125.97 24.9773 125.744 25.0234 125.498 25.0234C125.188 25.0234 124.911 24.9522 124.665 24.8097C124.42 24.6672 124.226 24.4723 124.084 24.2251C123.944 23.9778 123.873 23.6991 123.873 23.389C123.873 23.0768 123.944 22.7981 124.084 22.5529C124.226 22.3057 124.42 22.1108 124.665 21.9683C124.911 21.8258 125.188 21.7546 125.498 21.7546C125.735 21.7546 125.954 21.7975 126.155 21.8834C126.359 21.9693 126.532 22.0888 126.677 22.2417V20.2458H127.193V24.9606ZM125.542 24.5582C125.752 24.5582 125.943 24.5101 126.114 24.4137C126.286 24.3152 126.422 24.1821 126.523 24.0145C126.626 23.8448 126.677 23.653 126.677 23.4393V23.3324C126.677 23.1187 126.626 22.928 126.523 22.7604C126.422 22.5906 126.286 22.4576 126.114 22.3612C125.943 22.2648 125.752 22.2166 125.542 22.2166C125.324 22.2166 125.13 22.2679 124.958 22.3706C124.786 22.4733 124.65 22.6126 124.549 22.7887C124.451 22.9647 124.401 23.1637 124.401 23.3859C124.401 23.608 124.451 23.8081 124.549 23.9862C124.65 24.1622 124.786 24.3016 124.958 24.4042C125.13 24.5069 125.324 24.5582 125.542 24.5582Z" fill="#7C7C7C"/>
<path d="M127.947 24.6871L128.082 24.2031C128.157 24.2743 128.243 24.3361 128.34 24.3885C128.436 24.4409 128.538 24.4818 128.645 24.5111C128.752 24.5383 128.859 24.552 128.968 24.552C129.163 24.552 129.32 24.509 129.44 24.4231C129.559 24.3372 129.619 24.2251 129.619 24.0868C129.619 23.9862 129.588 23.9034 129.525 23.8385C129.464 23.7714 129.383 23.7138 129.283 23.6656C129.182 23.6174 129.074 23.5713 128.959 23.5273C128.819 23.4728 128.679 23.411 128.541 23.3418C128.403 23.2727 128.287 23.1815 128.195 23.0684C128.105 22.9552 128.06 22.8065 128.06 22.6221C128.06 22.446 128.104 22.2931 128.192 22.1632C128.28 22.0332 128.403 21.9327 128.56 21.8614C128.719 21.7902 128.901 21.7546 129.107 21.7546C129.417 21.7546 129.722 21.8321 130.021 21.9871L129.867 22.4523C129.8 22.4083 129.723 22.3696 129.635 22.336C129.547 22.3004 129.457 22.2732 129.364 22.2543C129.272 22.2355 129.185 22.226 129.104 22.226C128.951 22.226 128.827 22.2617 128.733 22.3329C128.638 22.402 128.591 22.4953 128.591 22.6126C128.591 22.6797 128.61 22.7415 128.648 22.7981C128.688 22.8526 128.754 22.907 128.846 22.9615C128.938 23.016 129.066 23.0768 129.229 23.1438C129.374 23.2025 129.516 23.2696 129.657 23.345C129.797 23.4183 129.913 23.5137 130.006 23.631C130.1 23.7463 130.147 23.8971 130.147 24.0836C130.147 24.268 130.098 24.4315 129.999 24.574C129.903 24.7144 129.768 24.8244 129.594 24.904C129.422 24.9836 129.223 25.0234 128.997 25.0234C128.622 25.0234 128.272 24.9113 127.947 24.6871Z" fill="#7C7C7C"/>
<path d="M131.14 25.0234C131.048 25.0234 130.973 24.9951 130.914 24.9386C130.857 24.8799 130.829 24.8045 130.829 24.7123C130.829 24.618 130.857 24.5415 130.914 24.4828C130.973 24.4241 131.048 24.3948 131.14 24.3948C131.233 24.3948 131.308 24.4241 131.367 24.4828C131.427 24.5415 131.458 24.618 131.458 24.7123C131.458 24.8045 131.427 24.8799 131.367 24.9386C131.308 24.9951 131.233 25.0234 131.14 25.0234Z" fill="#7C7C7C"/>
<path fill-rule="evenodd" clip-rule="evenodd" d="M9.50691 21.5319C8.69293 22.0626 8.16768 22.8711 7.98343 23.7511C7.79644 24.6338 7.94495 25.5853 8.47568 26.3993C9.00642 27.2133 9.81489 27.7357 10.6976 27.9227C11.5776 28.1097 12.5318 27.9612 13.3458 27.4305C14.1598 26.8998 14.685 26.0913 14.8693 25.2086C15.0563 24.3286 14.9078 23.3743 14.377 22.5604C13.8463 21.7464 13.0378 21.2239 12.1551 21.0369C12.0176 21.0067 11.8746 20.9874 11.7343 20.9737L12.5373 16.637L8.24193 4.71606L10.3924 21.1139C10.0844 21.2129 9.7874 21.3504 9.50691 21.5319ZM9.14667 24.0013C9.27041 23.4183 9.6169 22.8821 10.1559 22.5329C10.6949 22.1809 11.3246 22.0819 11.9076 22.2056C12.4906 22.3294 13.0268 22.6759 13.376 23.2149C13.728 23.7538 13.827 24.3836 13.7033 24.9666C13.5795 25.5495 13.2331 26.0858 12.6941 26.4378C12.1551 26.787 11.5253 26.886 10.9424 26.7623C10.3594 26.6385 9.82315 26.292 9.47391 25.753C9.12192 25.2141 9.02292 24.5843 9.14667 24.0013Z" fill="black"/>
<path fill-rule="evenodd" clip-rule="evenodd" d="M9.92448 0.187012C10.766 3.36868 7.5568 6.42661 4.58962 8.51381C4.21838 8.18656 3.75363 7.77682 3.15139 7.24333C4.24587 6.24785 5.29909 5.50263 6.34681 4.5649C8.24427 2.86819 8.88225 2.39246 9.92448 0.187012ZM4.06713 8.8823C3.69313 8.57705 3.2284 8.20031 2.64266 7.72182C0.954204 9.34153 0.0879684 10.48 0.0742188 12.5425C1.74618 10.9832 2.18067 10.238 4.06713 8.8823Z" fill="black"/>
<path fill-rule="evenodd" clip-rule="evenodd" d="M12.3501 0C13.9093 4.92513 11.1016 7.82906 7.18847 10.8787C6.31674 10.0565 6.06926 9.82551 5.36528 9.20128C9.02269 5.99761 11.0494 5.02413 12.3501 0ZM6.88874 11.1125C5.95926 10.4085 5.69527 10.205 4.93354 9.58627C4.77679 9.72651 4.6173 9.87226 4.45505 10.0208C1.24863 12.9632 -1.25932 15.2841 0.679385 19.0543C0.88838 17.5253 1.20462 15.4491 4.04805 13.2712C5.01878 12.5232 5.98126 11.811 6.88874 11.1125Z" fill="black"/>
<path fill-rule="evenodd" clip-rule="evenodd" d="M14.201 2.68115C14.6383 4.27061 14.7895 6.20381 14.1543 7.86202C13.2551 10.2077 11.4566 11.7697 9.64165 13.1914C8.79192 12.3912 8.17318 11.8054 7.69745 11.3572C7.82394 11.2747 7.95318 11.1949 8.08518 11.1124C13.1258 7.92252 13.519 5.42558 14.201 2.68115ZM9.63615 13.1969C8.66542 12.4572 7.96419 11.9292 7.4362 11.5277C3.71279 13.9394 1.47434 15.9716 1.70809 20.0277C1.85108 22.5274 3.42955 25.0299 5.90724 26.4873C5.32425 25.3351 4.53503 22.5329 4.39753 21.2624C3.96304 17.2888 6.81747 15.4078 9.63615 13.1969Z" fill="black"/>
<path fill-rule="evenodd" clip-rule="evenodd" d="M2.90674 7.96094L15.9524 18.1274C16.1889 17.9102 16.4584 17.7232 16.7581 17.5747C17.6271 17.1402 18.5923 17.1017 19.4448 17.385C20.3 17.6709 21.0453 18.2814 21.477 19.1504C21.9115 20.0194 21.95 20.9819 21.6668 21.8371C21.3808 22.6923 20.7703 23.4376 19.9013 23.8693C19.0323 24.3038 18.0671 24.345 17.2146 24.059C16.3594 23.773 15.6142 23.1626 15.1797 22.2908C14.7452 21.4218 14.7067 20.4594 14.9927 19.6041C15.0367 19.4694 15.0917 19.3374 15.1522 19.2082L11.008 17.7012L2.90674 7.96094ZM19.0653 18.5152C18.5016 18.3254 17.8636 18.3529 17.2889 18.6417C16.7141 18.9277 16.3099 19.4227 16.1202 19.9864C15.9304 20.5501 15.9579 21.1881 16.2439 21.7628C16.5299 22.3376 17.0249 22.7418 17.5886 22.9316C18.1523 23.1213 18.7903 23.0938 19.3678 22.8078C19.9426 22.5218 20.3468 22.0268 20.5365 21.4631C20.7263 20.8994 20.6988 20.2614 20.4128 19.6866C20.1241 19.1092 19.6318 18.7049 19.0653 18.5152Z" fill="black"/>
<path d="M10.4471 15.6692C10.7494 15.6692 10.9944 15.4242 10.9944 15.1219C10.9944 14.8197 10.7494 14.5747 10.4471 14.5747C10.1449 14.5747 9.8999 14.8197 9.8999 15.1219C9.8999 15.4242 10.1449 15.6692 10.4471 15.6692Z" fill="white"/>
<path fill-rule="evenodd" clip-rule="evenodd" d="M21.007 19.4199C20.8062 19.4254 20.6467 19.6152 20.6522 19.8489C20.655 20.0799 20.8227 20.2641 21.0235 20.2586L22.4974 20.2669C22.6982 20.2614 22.8577 20.0717 22.8522 19.8379C22.8467 19.6069 22.6817 19.4227 22.4809 19.4282L21.007 19.4199Z" fill="black"/>
</svg>
