<svg width="15" height="18" viewBox="0 0 15 18" fill="none" xmlns="http://www.w3.org/2000/svg">
<path d="M13.5333 17.6C13.5333 17.6 15 17.6 15 16.1333C15 14.6666 13.5333 10.2666 7.66669 10.2666C1.80004 10.2666 0.333374 14.6666 0.333374 16.1333C0.333374 17.6 1.80004 17.6 1.80004 17.6H13.5333ZM1.8323 16.1333C1.82147 16.1318 1.8107 16.1298 1.80004 16.1274C1.8015 15.7402 2.04497 14.6168 2.9147 13.6048C3.7243 12.6558 5.14696 11.7333 7.66669 11.7333C10.1849 11.7333 11.6076 12.6573 12.4187 13.6048C13.2884 14.6168 13.5304 15.7417 13.5333 16.1274L13.5216 16.1304C13.5148 16.1315 13.5079 16.1325 13.5011 16.1333H1.8323ZM7.66669 7.33331C8.44465 7.33331 9.19076 7.02427 9.74086 6.47416C10.291 5.92406 10.6 5.17795 10.6 4.39999C10.6 3.62202 10.291 2.87592 9.74086 2.32581C9.19076 1.77571 8.44465 1.46666 7.66669 1.46666C6.88872 1.46666 6.14262 1.77571 5.59251 2.32581C5.04241 2.87592 4.73336 3.62202 4.73336 4.39999C4.73336 5.17795 5.04241 5.92406 5.59251 6.47416C6.14262 7.02427 6.88872 7.33331 7.66669 7.33331ZM12.0667 4.39999C12.0667 4.9778 11.9529 5.54996 11.7317 6.08379C11.5106 6.61762 11.1865 7.10267 10.7779 7.51125C10.3694 7.91983 9.88432 8.24393 9.35049 8.46505C8.81666 8.68617 8.2445 8.79998 7.66669 8.79998C7.08887 8.79998 6.51672 8.68617 5.98288 8.46505C5.44905 8.24393 4.964 7.91983 4.55543 7.51125C4.14685 7.10267 3.82275 6.61762 3.60163 6.08379C3.38051 5.54996 3.2667 4.9778 3.2667 4.39999C3.2667 3.23304 3.73027 2.11388 4.55543 1.28873C5.38058 0.463569 6.49974 0 7.66669 0C8.83364 0 9.95279 0.463569 10.7779 1.28873C11.6031 2.11388 12.0667 3.23304 12.0667 4.39999Z" fill="#7C7C7C"/>
</svg>
