<svg width="18" height="18" viewBox="0 0 18 18" fill="none" xmlns="http://www.w3.org/2000/svg">
<path d="M15.0001 2.5H15H12.7V1.4C12.7 1.26739 12.6473 1.14021 12.5536 1.04645L12.4828 1.11716L12.5536 1.04645C12.4598 0.952679 12.3326 0.9 12.2 0.9C12.0674 0.9 11.9402 0.952678 11.8464 1.04645C11.7527 1.14021 11.7 1.26739 11.7 1.4V2.5H6.3V1.4C6.3 1.26739 6.24732 1.14021 6.15355 1.04645C6.05979 0.952678 5.93261 0.9 5.8 0.9C5.66739 0.9 5.54022 0.952679 5.44645 1.04645C5.35268 1.14021 5.3 1.26739 5.3 1.4V2.5H3L2.99988 2.5C2.44316 2.50067 1.90944 2.72212 1.51578 3.11578C1.12212 3.50944 0.900667 4.04316 0.9 4.59988V4.6L0.9 15L0.9 15.0001C0.900667 15.5568 1.12212 16.0906 1.51578 16.4842C1.90944 16.8779 2.44316 17.0993 2.99988 17.1H3H15H15.0001C15.5569 17.0996 16.0907 16.8782 16.4845 16.4845C16.8782 16.0907 17.0996 15.5569 17.1 15.0001V15V4.6V4.59992C17.0996 4.04312 16.8782 3.50926 16.4845 3.11554C16.0907 2.72183 15.5569 2.50045 15.0001 2.5ZM16.1 15C16.1 15.6072 15.6072 16.1 15 16.1H3C2.39132 16.1 1.9 15.6073 1.9 15V8.3H16.1V15ZM16.1 7.3H1.9V4.6C1.9 3.99274 2.39132 3.5 3 3.5H5.3V4.6C5.3 4.73261 5.35268 4.85979 5.44645 4.95355C5.54022 5.04732 5.66739 5.1 5.8 5.1C5.93261 5.1 6.05979 5.04732 6.15355 4.95355C6.24732 4.85979 6.3 4.73261 6.3 4.6V3.5H11.7V4.6C11.7 4.73261 11.7527 4.85979 11.8464 4.95355C11.9402 5.04732 12.0674 5.1 12.2 5.1C12.3326 5.1 12.4598 5.04732 12.5536 4.95355C12.6473 4.85979 12.7 4.73261 12.7 4.6V3.5H15C15.6072 3.5 16.1 3.99283 16.1 4.6V7.3Z" fill="#7C7C7C" stroke="#7C7C7C" stroke-width="0.2"/>
</svg>
