<svg width="14" height="15" viewBox="0 0 14 15" fill="none" xmlns="http://www.w3.org/2000/svg">
<path d="M12.8334 12.2669V12.8334H0.5V12.2668C0.954546 11.8441 1.35184 11.3619 1.68159 10.8329L1.69393 10.8131L1.70437 10.7923C2.07641 10.0492 2.29918 9.23812 2.35997 8.40665L2.3613 8.38844V8.37019L2.3613 6.11255L2.3613 6.11156C2.35917 5.03469 2.73928 3.99508 3.42884 3.18506C4.11819 2.37529 5.06957 1.85016 6.1057 1.70389L6.5358 1.64317V1.2088V0.610112C6.5358 0.57753 6.54857 0.54836 6.56803 0.528485C6.58714 0.508969 6.61077 0.5 6.63312 0.5C6.65547 0.5 6.6791 0.508969 6.6982 0.528484C6.71766 0.54836 6.73044 0.577531 6.73044 0.610112V1.19966V1.63865L7.16574 1.69546C8.21119 1.83189 9.17417 2.35382 9.87265 3.16628C10.5714 3.97901 10.9568 5.02619 10.9542 6.11132V6.11255V8.37019V8.38844L10.9555 8.40665C11.0163 9.23812 11.239 10.0492 11.6111 10.7923L11.6223 10.8146L11.6356 10.8357C11.9704 11.3649 12.3732 11.8463 12.8334 12.2669Z" stroke="#7C7C7C"/>
<mask id="path-2-inside-1_235_1452" fill="white">
<path d="M5.8335 14.1667C5.86133 14.3977 5.96105 14.6094 6.11422 14.7625C6.2674 14.9157 6.46368 15.0001 6.66683 15.0001C6.86998 15.0001 7.06626 14.9157 7.21944 14.7625C7.37261 14.6094 7.47233 14.3977 7.50017 14.1667H5.8335Z"/>
</mask>
<path d="M5.8335 14.1667V13.1667H4.70574L4.84068 14.2864L5.8335 14.1667ZM6.66683 15.0001V16.0001V15.0001ZM7.50017 14.1667L8.49298 14.2864L8.62792 13.1667H7.50017V14.1667ZM4.84068 14.2864C4.89319 14.7221 5.08354 15.1461 5.40712 15.4696L6.82133 14.0554C6.83068 14.0648 6.8326 14.07 6.83147 14.0676C6.83036 14.0652 6.82766 14.0583 6.82631 14.0471L4.84068 14.2864ZM5.40712 15.4696C5.73404 15.7966 6.17959 16.0001 6.66683 16.0001L6.66683 14.0001C6.74778 14.0001 6.80075 14.0348 6.82133 14.0554L5.40712 15.4696ZM6.66683 16.0001C7.15407 16.0001 7.59962 15.7966 7.92655 15.4696L6.51233 14.0554C6.53291 14.0348 6.58588 14.0001 6.66683 14.0001L6.66683 16.0001ZM7.92655 15.4696C8.25012 15.1461 8.44047 14.7221 8.49298 14.2864L6.50735 14.0471C6.506 14.0583 6.5033 14.0652 6.50219 14.0676C6.50106 14.07 6.50298 14.0648 6.51233 14.0554L7.92655 15.4696ZM7.50017 13.1667H5.8335V15.1667H7.50017V13.1667Z" fill="#7C7C7C" mask="url(#path-2-inside-1_235_1452)"/>
</svg>
