<svg width="21" height="16" viewBox="0 0 21 16" fill="none" xmlns="http://www.w3.org/2000/svg">
    <path d="M1.96875 0C1.44661 0 0.945846 0.207421 0.576634 0.576633C0.207421 0.945846 0 1.44661 0 1.96875V4.59375C0 5.11589 0.207421 5.61665 0.576634 5.98587C0.945846 6.35508 1.44661 6.5625 1.96875 6.5625H4.59375C5.11589 6.5625 5.61665 6.35508 5.98587 5.98587C6.35508 5.61665 6.5625 5.11589 6.5625 4.59375V1.96875C6.5625 1.44661 6.35508 0.945846 5.98587 0.576633C5.61665 0.207421 5.11589 0 4.59375 0H1.96875ZM1.3125 1.96875C1.3125 1.7947 1.38164 1.62778 1.50471 1.50471C1.62778 1.38164 1.7947 1.3125 1.96875 1.3125H4.59375C4.7678 1.3125 4.93472 1.38164 5.05779 1.50471C5.18086 1.62778 5.25 1.7947 5.25 1.96875V4.59375C5.25 4.7678 5.18086 4.93472 5.05779 5.05779C4.93472 5.18086 4.7678 5.25 4.59375 5.25H1.96875C1.7947 5.25 1.62778 5.18086 1.50471 5.05779C1.38164 4.93472 1.3125 4.7678 1.3125 4.59375V1.96875ZM9.84375 1.3125C9.6697 1.3125 9.50278 1.38164 9.37971 1.50471C9.25664 1.62778 9.1875 1.7947 9.1875 1.96875C9.1875 2.1428 9.25664 2.30972 9.37971 2.43279C9.50278 2.55586 9.6697 2.625 9.84375 2.625H20.3438C20.5178 2.625 20.6847 2.55586 20.8078 2.43279C20.9309 2.30972 21 2.1428 21 1.96875C21 1.7947 20.9309 1.62778 20.8078 1.50471C20.6847 1.38164 20.5178 1.3125 20.3438 1.3125H9.84375ZM9.84375 3.9375C9.6697 3.9375 9.50278 4.00664 9.37971 4.12971C9.25664 4.25278 9.1875 4.4197 9.1875 4.59375C9.1875 4.7678 9.25664 4.93472 9.37971 5.05779C9.50278 5.18086 9.6697 5.25 9.84375 5.25H17.7188C17.8928 5.25 18.0597 5.18086 18.1828 5.05779C18.3059 4.93472 18.375 4.7678 18.375 4.59375C18.375 4.4197 18.3059 4.25278 18.1828 4.12971C18.0597 4.00664 17.8928 3.9375 17.7188 3.9375H9.84375ZM1.96875 9.1875C1.44661 9.1875 0.945846 9.39492 0.576634 9.76413C0.207421 10.1333 0 10.6341 0 11.1562V13.7812C0 14.3034 0.207421 14.8042 0.576634 15.1734C0.945846 15.5426 1.44661 15.75 1.96875 15.75H4.59375C5.11589 15.75 5.61665 15.5426 5.98587 15.1734C6.35508 14.8042 6.5625 14.3034 6.5625 13.7812V11.1562C6.5625 10.6341 6.35508 10.1333 5.98587 9.76413C5.61665 9.39492 5.11589 9.1875 4.59375 9.1875H1.96875ZM1.3125 11.1562C1.3125 10.9822 1.38164 10.8153 1.50471 10.6922C1.62778 10.5691 1.7947 10.5 1.96875 10.5H4.59375C4.7678 10.5 4.93472 10.5691 5.05779 10.6922C5.18086 10.8153 5.25 10.9822 5.25 11.1562V13.7812C5.25 13.9553 5.18086 14.1222 5.05779 14.2453C4.93472 14.3684 4.7678 14.4375 4.59375 14.4375H1.96875C1.7947 14.4375 1.62778 14.3684 1.50471 14.2453C1.38164 14.1222 1.3125 13.9553 1.3125 13.7812V11.1562ZM9.84375 10.5C9.6697 10.5 9.50278 10.5691 9.37971 10.6922C9.25664 10.8153 9.1875 10.9822 9.1875 11.1562C9.1875 11.3303 9.25664 11.4972 9.37971 11.6203C9.50278 11.7434 9.6697 11.8125 9.84375 11.8125H20.3438C20.5178 11.8125 20.6847 11.7434 20.8078 11.6203C20.9309 11.4972 21 11.3303 21 11.1562C21 10.9822 20.9309 10.8153 20.8078 10.6922C20.6847 10.5691 20.5178 10.5 20.3438 10.5H9.84375ZM9.84375 13.125C9.6697 13.125 9.50278 13.1941 9.37971 13.3172C9.25664 13.4403 9.1875 13.6072 9.1875 13.7812C9.1875 13.9553 9.25664 14.1222 9.37971 14.2453C9.50278 14.3684 9.6697 14.4375 9.84375 14.4375H17.7188C17.8928 14.4375 18.0597 14.3684 18.1828 14.2453C18.3059 14.1222 18.375 13.9553 18.375 13.7812C18.375 13.6072 18.3059 13.4403 18.1828 13.3172C18.0597 13.1941 17.8928 13.125 17.7188 13.125H9.84375Z" fill="black"/>
</svg>
