<svg width="18" height="17" viewBox="0 0 18 17" fill="none" xmlns="http://www.w3.org/2000/svg">
<path d="M12.4781 10.9897C13.507 9.58563 13.9679 7.84486 13.7684 6.11563C13.569 4.38641 12.724 2.79624 11.4025 1.66328C10.081 0.530315 8.38043 -0.061896 6.64103 0.00512612C4.90163 0.0721483 3.25167 0.793461 2.02126 2.02475C0.790846 3.25605 0.0707149 4.90652 0.00493745 6.64597C-0.06084 8.38541 0.532587 10.0856 1.6665 11.4063C2.80041 12.727 4.39117 13.5708 6.12054 13.769C7.84991 13.9672 9.59035 13.5051 10.9936 12.4752H10.9926C11.0245 12.5177 11.0585 12.5581 11.0967 12.5974L15.1878 16.6884C15.387 16.8878 15.6573 16.9999 15.9392 17C16.2211 17.0001 16.4914 16.8882 16.6908 16.689C16.8902 16.4897 17.0023 16.2194 17.0024 15.9376C17.0025 15.6557 16.8906 15.3853 16.6914 15.1859L12.6003 11.0949C12.5623 11.0564 12.5215 11.0209 12.4781 10.9886V10.9897ZM12.7523 6.90499C12.7523 7.67249 12.6011 8.43246 12.3074 9.14153C12.0137 9.8506 11.5832 10.4949 11.0405 11.0376C10.4978 11.5803 9.85352 12.0108 9.14445 12.3045C8.43538 12.5982 7.67541 12.7493 6.90792 12.7493C6.14042 12.7493 5.38045 12.5982 4.67138 12.3045C3.96231 12.0108 3.31803 11.5803 2.77533 11.0376C2.23264 10.4949 1.80214 9.8506 1.50844 9.14153C1.21473 8.43246 1.06356 7.67249 1.06356 6.90499C1.06356 5.35498 1.67931 3.86844 2.77534 2.77241C3.87136 1.67638 5.3579 1.06064 6.90792 1.06064C8.45793 1.06064 9.94447 1.67638 11.0405 2.77241C12.1365 3.86844 12.7523 5.35498 12.7523 6.90499Z" fill="#7C7C7C"/>
</svg>
