<svg width="16" height="17" viewBox="0 0 16 17" fill="none" xmlns="http://www.w3.org/2000/svg">
<path d="M7.91862 5.1605C7.09743 5.1605 6.30987 5.48672 5.7292 6.06738C5.14853 6.64805 4.82232 7.43561 4.82232 8.2568C4.82232 9.07799 5.14853 9.86554 5.7292 10.4462C6.30987 11.0269 7.09743 11.3531 7.91862 11.3531C8.73981 11.3531 9.52736 11.0269 10.108 10.4462C10.6887 9.86554 11.0149 9.07799 11.0149 8.2568C11.0149 7.43561 10.6887 6.64805 10.108 6.06738C9.52736 5.48672 8.73981 5.1605 7.91862 5.1605ZM5.85442 8.2568C5.85442 7.70934 6.07189 7.1843 6.45901 6.79719C6.84612 6.41008 7.37116 6.1926 7.91862 6.1926C8.46607 6.1926 8.99111 6.41008 9.37823 6.79719C9.76534 7.1843 9.98281 7.70934 9.98281 8.2568C9.98281 8.80426 9.76534 9.3293 9.37823 9.71641C8.99111 10.1035 8.46607 10.321 7.91862 10.321C7.37116 10.321 6.84612 10.1035 6.45901 9.71641C6.07189 9.3293 5.85442 8.80426 5.85442 8.2568ZM6.05836 16.294C6.66895 16.4397 7.29399 16.5132 7.92151 16.5132C8.54766 16.5125 9.17158 16.4385 9.78052 16.2927C9.94061 16.2542 10.0849 16.1672 10.1938 16.0437C10.3027 15.9202 10.3709 15.7661 10.389 15.6025L10.5286 14.3346C10.5522 14.1079 10.6559 13.897 10.8211 13.74C10.9863 13.5829 11.2022 13.49 11.4298 13.478C11.5812 13.4714 11.732 13.4997 11.8707 13.5606L13.0296 14.0688C13.1303 14.1141 13.2394 14.1378 13.3499 14.1386C13.4604 14.1393 13.5698 14.1169 13.6711 14.0729C13.7731 14.0295 13.8643 13.9651 13.9395 13.8838C14.7916 12.9654 15.4277 11.8681 15.8014 10.6723C15.8503 10.5137 15.8488 10.3438 15.797 10.186C15.7453 10.0283 15.6458 9.89053 15.5124 9.79174L14.4828 9.03211C14.3601 8.94304 14.2603 8.82621 14.1915 8.69117C14.1227 8.55613 14.0868 8.40671 14.0868 8.25515C14.0868 8.10358 14.1227 7.95417 14.1915 7.81912C14.2603 7.68408 14.3601 7.56725 14.4828 7.47818L15.5091 6.72021C15.6429 6.62127 15.7426 6.48315 15.7944 6.32499C15.8462 6.16683 15.8475 5.99648 15.7981 5.83756C15.4243 4.64159 14.7873 3.54453 13.9341 2.6269C13.8211 2.50607 13.6733 2.4233 13.5112 2.39002C13.3491 2.35675 13.1807 2.3746 13.0292 2.44112L11.8707 2.95139C11.751 3.00547 11.6206 3.03396 11.4884 3.03396C11.2506 3.03349 11.0214 2.94526 10.8446 2.78618C10.6679 2.62711 10.5561 2.40838 10.5307 2.17195L10.3903 0.908661C10.3722 0.742929 10.3029 0.58698 10.1918 0.462623C10.0808 0.338267 9.93367 0.251721 9.77103 0.21509C9.16503 0.0795207 8.54657 0.00743529 7.92563 0C7.30062 0.00721357 6.67804 0.0791565 6.06785 0.214677C5.90534 0.251124 5.75829 0.337451 5.64726 0.461587C5.53622 0.585722 5.46676 0.741456 5.44859 0.907009L5.30823 2.17113C5.28174 2.40794 5.16886 2.62666 4.99117 2.78543C4.80993 2.93942 4.58122 3.02694 4.34342 3.03313C4.21255 3.03313 4.08251 3.00589 3.96237 2.95304L2.80642 2.44277C2.65441 2.37566 2.48526 2.35756 2.32249 2.391C2.15972 2.42444 2.01141 2.50776 1.89817 2.62938C1.04609 3.5472 0.409948 4.64388 0.0362636 5.83921C-0.0131013 5.99807 -0.0118019 6.16835 0.0399816 6.32644C0.0917651 6.48453 0.191465 6.62258 0.325251 6.72145L1.3524 7.47942C1.53575 7.61514 1.66532 7.81122 1.71826 8.03311C1.77121 8.255 1.74413 8.48846 1.6418 8.69234C1.57364 8.82751 1.47464 8.94475 1.35281 9.03459L0.324839 9.79421C0.191251 9.89296 0.0916731 10.0308 0.0398962 10.1886C-0.0118808 10.3465 -0.0132944 10.5165 0.0358508 10.6752C0.408861 11.8717 1.04506 12.9695 1.89776 13.8879C2.01044 14.0094 2.1582 14.0928 2.32047 14.1264C2.48275 14.16 2.65146 14.1422 2.80312 14.0754L3.9665 13.5647C4.08664 13.5118 4.21627 13.4846 4.34755 13.4846H4.35085C4.58776 13.4849 4.81627 13.5723 4.99289 13.7302C5.16951 13.8881 5.28189 14.1054 5.30864 14.3408L5.44818 15.6029C5.46641 15.7667 5.53475 15.921 5.64388 16.0446C5.753 16.1682 5.8976 16.2551 6.05795 16.2936L6.05836 16.294ZM9.3875 15.3259C8.42146 15.5323 7.42238 15.5323 6.45634 15.3259L6.33083 14.2269C6.27627 13.7392 6.0441 13.2887 5.67861 12.9613C5.31312 12.6339 4.8399 12.4525 4.3492 12.4517H4.34507C4.0714 12.4506 3.80054 12.5068 3.54994 12.6168L2.54014 13.0598C1.88506 12.3209 1.38525 11.4579 1.07043 10.5221L1.96423 9.86151C2.21618 9.67583 2.42099 9.43356 2.56213 9.15421C2.70328 8.87487 2.77681 8.56627 2.77681 8.25329C2.77681 7.94031 2.70328 7.63171 2.56213 7.35236C2.42099 7.07302 2.21618 6.83074 1.96423 6.64507L1.07084 5.98453C1.38628 5.0497 1.8862 4.18772 2.54096 3.44969L3.54499 3.89225C3.796 4.00372 4.06765 4.06069 4.34218 4.06028H4.34631C4.83817 4.05926 5.31245 3.87723 5.67869 3.54891C6.04493 3.22058 6.27751 2.76894 6.33207 2.28011L6.45592 1.18196C6.94026 1.08491 7.43254 1.03294 7.92646 1.02673C8.4165 1.03293 8.90489 1.08453 9.38544 1.18155L9.50929 2.2797C9.56236 2.76843 9.79392 3.22038 10.1596 3.54895C10.5253 3.87752 10.9993 4.0596 11.4909 4.06028C11.7682 4.06683 12.0432 4.00889 12.2943 3.89102L13.2975 3.44886C13.9527 4.18683 14.4528 5.049 14.768 5.98412L13.8775 6.64177C13.6239 6.82666 13.4175 7.06888 13.2752 7.34868C13.1329 7.62848 13.0587 7.93794 13.0587 8.25184C13.0587 8.56575 13.1329 8.87521 13.2752 9.15501C13.4175 9.43481 13.6239 9.67703 13.8775 9.86192L14.7713 10.5225C14.4557 11.4571 13.956 12.3191 13.3016 13.0573L12.2943 12.6156C12.0075 12.4883 11.6947 12.4307 11.3815 12.4474C11.0682 12.4641 10.7633 12.5547 10.4916 12.7116C10.22 12.8686 9.98936 13.0876 9.81849 13.3507C9.64762 13.6139 9.54139 13.9136 9.50846 14.2256L9.3875 15.3259Z" fill="#7C7C7C"/>
</svg>
