<svg width="17" height="17" viewBox="0 0 17 17" fill="none" xmlns="http://www.w3.org/2000/svg">
<path d="M14.1062 11.7212C13.7352 11.7226 13.3683 11.7957 13.0276 11.9363C12.6869 12.0769 12.3793 12.2821 12.1233 12.5394L5.40918 9.31936C5.57434 8.83939 5.57434 8.32127 5.40918 7.8413L12.1343 4.56317C12.616 5.04968 13.2693 5.34715 13.9671 5.39777C14.6649 5.4484 15.3574 5.24855 15.91 4.83708C16.4627 4.42561 16.8359 3.83191 16.9573 3.17137C17.0786 2.51084 16.9394 1.83066 16.5666 1.26304C16.1938 0.695426 15.6142 0.28092 14.9403 0.100091C14.2664 -0.0807384 13.5464 -0.014971 12.9203 0.28461C12.2942 0.584191 11.8067 1.09618 11.5525 1.72107C11.2983 2.34596 11.2956 3.0391 11.545 3.66577L4.88593 6.91223C4.52629 6.49069 4.03942 6.18607 3.49205 6.04013C2.94469 5.8942 2.36362 5.91408 1.82851 6.09706C1.2934 6.28004 0.830432 6.61716 0.503077 7.06221C0.175722 7.50726 0 8.03845 0 8.58297C0 9.12749 0.175722 9.65868 0.503077 10.1037C0.830432 10.5488 1.2934 10.8859 1.82851 11.0689C2.36362 11.2519 2.94469 11.2717 3.49205 11.1258C4.03942 10.9799 4.52629 10.6752 4.88593 10.2537L11.5285 13.4579C11.4162 13.7468 11.3584 14.0524 11.3577 14.3606C11.3577 14.8826 11.5192 15.3929 11.8218 15.827C12.1245 16.261 12.5546 16.5993 13.0578 16.7991C13.561 16.9989 14.1147 17.0511 14.6489 16.9493C15.1832 16.8474 15.6739 16.5961 16.059 16.2269C16.4442 15.8578 16.7064 15.3875 16.8127 14.8755C16.919 14.3635 16.8644 13.8328 16.656 13.3505C16.4476 12.8683 16.0946 12.456 15.6417 12.166C15.1888 11.876 14.6564 11.7212 14.1117 11.7212H14.1062ZM14.1062 1.16363C14.433 1.16363 14.7524 1.25651 15.0242 1.43052C15.2959 1.60453 15.5077 1.85186 15.6328 2.14123C15.7578 2.4306 15.7905 2.74902 15.7268 3.05622C15.663 3.36341 15.5057 3.64559 15.2746 3.86707C15.0435 4.08854 14.7491 4.23937 14.4285 4.30047C14.108 4.36158 13.7758 4.33022 13.4738 4.21035C13.1719 4.09049 12.9138 3.88751 12.7323 3.62709C12.5507 3.36666 12.4538 3.06048 12.4538 2.74726C12.4538 2.32726 12.6279 1.92445 12.9378 1.62746C13.2476 1.33047 13.6679 1.16363 14.1062 1.16363ZM2.79843 10.1376C2.47163 10.1376 2.15216 10.0447 1.88043 9.87068C1.60869 9.69667 1.39691 9.44934 1.27184 9.15997C1.14678 8.87059 1.11406 8.55218 1.17781 8.24498C1.24157 7.93779 1.39894 7.65561 1.63003 7.43413C1.86112 7.21266 2.15554 7.06183 2.47607 7.00073C2.7966 6.93962 3.12884 6.97098 3.43077 7.09084C3.7327 7.21071 3.99077 7.41368 4.17233 7.67411C4.3539 7.93454 4.45081 8.24072 4.45081 8.55393C4.45081 8.97394 4.27672 9.37675 3.96684 9.67373C3.65696 9.97072 3.23667 10.1376 2.79843 10.1376ZM14.1062 15.9442C13.7794 15.9442 13.4599 15.8514 13.1882 15.6773C12.9164 15.5033 12.7046 15.256 12.5796 14.9666C12.4545 14.6773 12.4218 14.3588 12.4855 14.0517C12.5493 13.7445 12.7067 13.4623 12.9378 13.2408C13.1689 13.0193 13.4633 12.8685 13.7838 12.8074C14.1043 12.7463 14.4366 12.7777 14.7385 12.8975C15.0404 13.0174 15.2985 13.2204 15.4801 13.4808C15.6616 13.7412 15.7585 14.0474 15.7585 14.3606C15.7585 14.7806 15.5844 15.1834 15.2746 15.4804C14.9647 15.7774 14.5444 15.9442 14.1062 15.9442Z" fill="#7C7C7C"/>
</svg>
